<svg xmlns="http://www.w3.org/2000/svg" viewBox="0 0 900 600">
  <rect width="900" height="600" fill="#de2910"/>
  <g fill="#ffde00">
    <path d="M150 120l17.6 54.2h57l-46.1 33.5 17.6 54.2L150 228.4l-46.1 33.5 17.6-54.2-46.1-33.5h57z"/>
    <path d="M300 75l8.4 25.8h27.1l-21.9 15.9 8.4 25.8-21.9-15.9-21.9 15.9 8.4-25.8-21.9-15.9h27.1z" transform="rotate(23.04 300 75)"/>
    <path d="M360 135l8.4 25.8h27.1l-21.9 15.9 8.4 25.8-21.9-15.9-21.9 15.9 8.4-25.8-21.9-15.9h27.1z" transform="rotate(45.87 360 135)"/>
    <path d="M360 225l8.4 25.8h27.1l-21.9 15.9 8.4 25.8-21.9-15.9-21.9 15.9 8.4-25.8-21.9-15.9h27.1z" transform="rotate(69.95 360 225)"/>
    <path d="M300 285l8.4 25.8h27.1l-21.9 15.9 8.4 25.8-21.9-15.9-21.9 15.9 8.4-25.8-21.9-15.9h27.1z" transform="rotate(20.66 300 285)"/>
  </g>
</svg>
